# xmcd
#
# Track frame offsets: 
#        150
#        13811
#        27339
#        36945
#        57524
#        73501
#        90657
#        112756
#        135079
#        151469
#        166227
#        181567
#
# Disc length: 2731 seconds
#
# Revision: 0
# Processed by: cddbd v1.5.2PL0 Copyright (c) Steve Scherf et al.
# Submitted via: ExactAudioCopy v1.3
#
DISCID=8c0aa90c
DTITLE=Dennis Brennan and The White Owls - Live at Electric Andyland
DYEAR=2019
DGENRE=Electric Blues
TTITLE0=Cuttin' In
TTITLE1=Nothin' But Love
TTITLE2=Yes I'm Loving You
TTITLE3=End Of The Blues
TTITLE4=Good Lover
TTITLE5=The (New) Call Of The Freaks
TTITLE6=Tangle
TTITLE7=Three Kind Of Blues
TTITLE8=I Live the Life I Love
TTITLE9=Foolkiller
TTITLE10=I'm On My Last Go Round
TTITLE11=No Expectations
EXTD=
EXTT0=
EXTT1=
EXTT2=
EXTT3=
EXTT4=
EXTT5=
EXTT6=
EXTT7=
EXTT8=
EXTT9=
EXTT10=
EXTT11=
PLAYORDER=
